<?xml version="1.0" encoding="utf-8"?>
<svg xmlns="http://www.w3.org/2000/svg" xmlns:xlink="http://www.w3.org/1999/xlink" style="margin: auto; background: rgb(253, 232, 232); display: block; z-index: 1; position: relative; shape-rendering: auto;" width="2104" height="1840" preserveAspectRatio="xMidYMid" viewBox="0 0 2104 1840">
<g transform="translate(1052,920) scale(1,1) translate(-1052,-920)"><defs>
  <path id="path-z1prs56005h-1" d="M-35 -35L35 -35L35 35L-35 35Z" fill="none" stroke="inherit" stroke-width="4.333333333333334" transform="scale(0.3)"></path>
  <path id="path-z1prs56005h-2" d="M0 -37A37 37 0 0 1 0 37A37 37 0 0 1 0 -37" fill="none" stroke="inherit" stroke-width="4.333333333333334" transform="scale(0.3)"></path>
  <path id="path-z1prs56005h-3" d="M0 -34.641L40 34.641L-40 34.641Z" fill="none" stroke="inherit" stroke-width="4.333333333333334" transform="scale(0.3)"></path>
</defs><path id="path0" d="M 116.62569502735849 294.1747734413546
c 0 63.097990828009046 -15.438870096214979 18.123890982513238 -33.562761078728215 18.123890982513238
S 49.50017286990206 357.2727642693636 49.50017286990206 294.1747734413546
s 15.438870096214979 -18.123890982513238 33.562761078728215 -18.123890982513238
S 116.62569502735849 231.07678261334556 116.62569502735849 294.1747734413546
z" fill="none" stroke="none"></path>
<use xlink:href="#path-z1prs56005h-3" x="0" y="0" stroke="#d34c31">
  <animateMotion begin="-1.1786817627343948s" dur="16.26274046409639s" keyPoints="1;0" keyTimes="0;1" repeatCount="indefinite" calcMode="linear">
    <mpath xlink:href="#path0"></mpath>
  </animateMotion>
</use><path id="path1" d="M 193.37356201098277 1048.6866405453272
c 0 60.52325990392138 -14.808882742448846 17.38434061070082 -32.19322335314967 17.38434061070082
S 128.9871153046834 1109.2099004492486 128.9871153046834 1048.6866405453272
s 14.808882742448846 -17.38434061070082 32.19322335314967 -17.38434061070082
S 193.37356201098277 988.1633806414059 193.37356201098277 1048.6866405453272
z" fill="none" stroke="none"></path>
<use xlink:href="#path-z1prs56005h-2" x="0" y="0" stroke="#220b09">
  <animateMotion begin="-3.8125573841700353s" dur="12.589165558665837s" keyPoints="0;1" keyTimes="0;1" repeatCount="indefinite" calcMode="linear">
    <mpath xlink:href="#path1"></mpath>
  </animateMotion>
</use><path id="path2" d="M 304.2066862790042 908.3456393119393
c 0 30.028874266241743 -7.347490511952766 8.625314948814118 -15.972805460766883 8.625314948814118
S 272.2610753574704 938.374513578181 272.2610753574704 908.3456393119393
s 7.347490511952766 -8.625314948814118 15.972805460766883 -8.625314948814118
S 304.2066862790042 878.3167650456976 304.2066862790042 908.3456393119393
z" fill="none" stroke="none"></path>
<use xlink:href="#path-z1prs56005h-2" x="0" y="0" stroke="#e88432">
  <animateMotion begin="-1.1006084673454886s" dur="13.521651745421423s" keyPoints="0;1" keyTimes="0;1" repeatCount="indefinite" calcMode="linear">
    <mpath xlink:href="#path2"></mpath>
  </animateMotion>
</use><path id="path3" d="M 414.32142744817946 454.3609421521637
c 0 48.905259580946584 -11.966180535763524 14.047255411548488 -26.01343594731201 14.047255411548488
S 362.2945555535554 503.2662017331103 362.2945555535554 454.3609421521637
s 11.966180535763524 -14.047255411548488 26.01343594731201 -14.047255411548488
S 414.32142744817946 405.45568257121715 414.32142744817946 454.3609421521637
z" fill="none" stroke="none"></path>
<use xlink:href="#path-z1prs56005h-3" x="0" y="0" stroke="#220b09">
  <animateMotion begin="-2.9156344923779787s" dur="10.655365536677621s" keyPoints="0;1" keyTimes="0;1" repeatCount="indefinite" calcMode="linear">
    <mpath xlink:href="#path3"></mpath>
  </animateMotion>
</use><path id="path4" d="M 610.2894001055892 1105.889885921817
c 0 36.22451273724244 -8.863444605921021 10.404913233037723 -19.268357838958746 10.404913233037723
S 571.7526844276716 1142.1143986590596 571.7526844276716 1105.889885921817
s 8.863444605921021 -10.404913233037723 19.268357838958746 -10.404913233037723
S 610.2894001055892 1069.6653731845745 610.2894001055892 1105.889885921817
z" fill="none" stroke="none"></path>
<use xlink:href="#path-z1prs56005h-2" x="0" y="0" stroke="#220b09">
  <animateMotion begin="-2.602113756236947s" dur="16.328435358345295s" keyPoints="0;1" keyTimes="0;1" repeatCount="indefinite" calcMode="linear">
    <mpath xlink:href="#path4"></mpath>
  </animateMotion>
</use><path id="path5" d="M 654.5200500901108 461.3943196706317
c 0 61.839908851546454 -15.131041527506046 17.762527010550578 -32.89356853805663 17.762527010550578
S 588.7329130139976 523.2342285221782 588.7329130139976 461.3943196706317
s 15.131041527506046 -17.762527010550578 32.89356853805663 -17.762527010550578
S 654.5200500901108 399.55441081908526 654.5200500901108 461.3943196706317
z" fill="none" stroke="none"></path>
<use xlink:href="#path-z1prs56005h-1" x="0" y="0" stroke="#d34c31">
  <animateMotion begin="-2.2581083996473748s" dur="19.68833509861575s" keyPoints="0;1" keyTimes="0;1" repeatCount="indefinite" calcMode="linear">
    <mpath xlink:href="#path5"></mpath>
  </animateMotion>
</use><path id="path6" d="M 843.0683510676765 557.6108614130023
c 0 47.38207120998329 -11.593485508825696 13.60974385818669 -25.203229367012383 13.60974385818669
S 792.6618923336518 604.9929326229857 792.6618923336518 557.6108614130023
s 11.593485508825696 -13.60974385818669 25.203229367012383 -13.60974385818669
S 843.0683510676765 510.22879020301906 843.0683510676765 557.6108614130023
z" fill="none" stroke="none"></path>
<use xlink:href="#path-z1prs56005h-1" x="0" y="0" stroke="#220b09">
  <animateMotion begin="-4.258985028245382s" dur="16.90950443657198s" keyPoints="1;0" keyTimes="0;1" repeatCount="indefinite" calcMode="linear">
    <mpath xlink:href="#path6"></mpath>
  </animateMotion>
</use><path id="path7" d="M 863.7993181373937 1526.0242655269428
c 0 37.47059323947231 -9.16833664370067 10.762829973039919 -19.931166616740587 10.762829973039919
S 823.9369849039125 1563.494858766415 823.9369849039125 1526.0242655269428
s 9.16833664370067 -10.762829973039919 19.931166616740587 -10.762829973039919
S 863.7993181373937 1488.5536722874706 863.7993181373937 1526.0242655269428
z" fill="none" stroke="none"></path>
<use xlink:href="#path-z1prs56005h-3" x="0" y="0" stroke="#e88432">
  <animateMotion begin="-0.4360227407106798s" dur="18.328322799818963s" keyPoints="1;0" keyTimes="0;1" repeatCount="indefinite" calcMode="linear">
    <mpath xlink:href="#path7"></mpath>
  </animateMotion>
</use><path id="path8" d="M 999.9767438842131 1583.0083704932595
c 0 59.15235497594892 -14.473448557944947 16.9905700462832 -31.464018604228148 16.9905700462832
S 937.0487066757568 1642.1607254692083 937.0487066757568 1583.0083704932595
s 14.473448557944947 -16.9905700462832 31.464018604228148 -16.9905700462832
S 999.9767438842131 1523.8560155173107 999.9767438842131 1583.0083704932595
z" fill="none" stroke="none"></path>
<use xlink:href="#path-z1prs56005h-3" x="0" y="0" stroke="#220b09">
  <animateMotion begin="-0.5807048650322311s" dur="12.551453736871135s" keyPoints="1;0" keyTimes="0;1" repeatCount="indefinite" calcMode="linear">
    <mpath xlink:href="#path8"></mpath>
  </animateMotion>
</use><path id="path9" d="M 1173.723370568619 403.10115886818625
c 0 43.72872381197503 -10.699581358249208 12.560378116205593 -23.259959474454803 12.560378116205593
S 1127.2034516197095 446.8298826801613 1127.2034516197095 403.10115886818625
s 10.699581358249208 -12.560378116205593 23.259959474454803 -12.560378116205593
S 1173.723370568619 359.3724350562112 1173.723370568619 403.10115886818625
z" fill="none" stroke="none"></path>
<use xlink:href="#path-z1prs56005h-3" x="0" y="0" stroke="#220b09">
  <animateMotion begin="-3.138672284059578s" dur="10.992245684465786s" keyPoints="0;1" keyTimes="0;1" repeatCount="indefinite" calcMode="linear">
    <mpath xlink:href="#path9"></mpath>
  </animateMotion>
</use><path id="path10" d="M 1260.677121416857 1080.4062582656984
c 0 49.72398187814145 -12.166506204226097 14.282420326700205 -26.4489265309263 14.282420326700205
S 1207.7792683550047 1130.13024014384 1207.7792683550047 1080.4062582656984
s 12.166506204226097 -14.282420326700205 26.4489265309263 -14.282420326700205
S 1260.677121416857 1030.6822763875568 1260.677121416857 1080.4062582656984
z" fill="none" stroke="none"></path>
<use xlink:href="#path-z1prs56005h-1" x="0" y="0" stroke="#220b09">
  <animateMotion begin="-1.892527297104356s" dur="13.428562119794126s" keyPoints="0;1" keyTimes="0;1" repeatCount="indefinite" calcMode="linear">
    <mpath xlink:href="#path10"></mpath>
  </animateMotion>
</use><path id="path11" d="M 1371.55175482143 1242.621448084885
c 0 45.84786732921624 -11.218095197574186 13.169068275413178 -24.387163472987364 13.169068275413178
S 1322.7774278754553 1288.4693154141014 1322.7774278754553 1242.621448084885
s 11.218095197574186 -13.169068275413178 24.387163472987364 -13.169068275413178
S 1371.55175482143 1196.7735807556687 1371.55175482143 1242.621448084885
z" fill="none" stroke="none"></path>
<use xlink:href="#path-z1prs56005h-2" x="0" y="0" stroke="#e88432">
  <animateMotion begin="-3.2696239766056614s" dur="19.84854107299717s" keyPoints="1;0" keyTimes="0;1" repeatCount="indefinite" calcMode="linear">
    <mpath xlink:href="#path11"></mpath>
  </animateMotion>
</use><path id="path12" d="M 1463.8209302632292 1574.798040820724
c 0 50.45654790791164 -12.34575108385072 14.492838228868239 -26.83858931271896 14.492838228868239
S 1410.1437516377912 1625.2545887286358 1410.1437516377912 1574.798040820724
s 12.34575108385072 -14.492838228868239 26.83858931271896 -14.492838228868239
S 1463.8209302632292 1524.3414929128123 1463.8209302632292 1574.798040820724
z" fill="none" stroke="none"></path>
<use xlink:href="#path-z1prs56005h-3" x="0" y="0" stroke="#e88432">
  <animateMotion begin="-2.271908486730224s" dur="16.481093649070637s" keyPoints="1;0" keyTimes="0;1" repeatCount="indefinite" calcMode="linear">
    <mpath xlink:href="#path12"></mpath>
  </animateMotion>
</use><path id="path13" d="M 1606.6968446900487 361.0328937326958
c 0 43.55660577262804 -10.657467369898349 12.510939955967627 -23.168407325865978 12.510939955967627
S 1560.3600300383168 404.58949950532383 1560.3600300383168 361.0328937326958
s 10.657467369898349 -12.510939955967627 23.168407325865978 -12.510939955967627
S 1606.6968446900487 317.4762879600678 1606.6968446900487 361.0328937326958
z" fill="none" stroke="none"></path>
<use xlink:href="#path-z1prs56005h-2" x="0" y="0" stroke="#d34c31">
  <animateMotion begin="-1.7067607712632016s" dur="13.780158459319365s" keyPoints="1;0" keyTimes="0;1" repeatCount="indefinite" calcMode="linear">
    <mpath xlink:href="#path13"></mpath>
  </animateMotion>
</use><path id="path14" d="M 1684.4600954975951 1813.472954040069
c 0 20.99122140930354 -5.136149919297675 6.029393383523358 -11.165543302821032 6.029393383523358
S 1662.129008891953 1834.4641754493725 1662.129008891953 1813.472954040069
s 5.136149919297675 -6.029393383523358 11.165543302821032 -6.029393383523358
S 1684.4600954975951 1792.4817326307655 1684.4600954975951 1813.472954040069
z" fill="none" stroke="none"></path>
<use xlink:href="#path-z1prs56005h-1" x="0" y="0" stroke="#e88432">
  <animateMotion begin="-3.5787123792237283s" dur="17.3694741677383s" keyPoints="1;0" keyTimes="0;1" repeatCount="indefinite" calcMode="linear">
    <mpath xlink:href="#path14"></mpath>
  </animateMotion>
</use><path id="path15" d="M 1855.0149333508762 295.30023339051854
c 0 43.171071876113146 -10.56313460798513 12.400201496330373 -22.963336104315502 12.400201496330373
S 1809.0882611422453 338.4713052666317 1809.0882611422453 295.30023339051854
s 10.56313460798513 -12.400201496330373 22.963336104315502 -12.400201496330373
S 1855.0149333508762 252.12916151440538 1855.0149333508762 295.30023339051854
z" fill="none" stroke="none"></path>
<use xlink:href="#path-z1prs56005h-1" x="0" y="0" stroke="#d34c31">
  <animateMotion begin="-4.536949707904908s" dur="12.363408440020763s" keyPoints="1;0" keyTimes="0;1" repeatCount="indefinite" calcMode="linear">
    <mpath xlink:href="#path15"></mpath>
  </animateMotion>
</use><path id="path16" d="M 1977.673554385931 1684.659364048959
c 0 62.34793679507469 -15.25534623709274 17.908449930500176 -33.16379616759291 17.908449930500176
S 1911.3459620507454 1747.0073008440338 1911.3459620507454 1684.659364048959
s 15.25534623709274 -17.908449930500176 33.16379616759291 -17.908449930500176
S 1977.673554385931 1622.3114272538844 1977.673554385931 1684.659364048959
z" fill="none" stroke="none"></path>
<use xlink:href="#path-z1prs56005h-1" x="0" y="0" stroke="#220b09">
  <animateMotion begin="-2.539119725493265s" dur="17.598262233898414s" keyPoints="1;0" keyTimes="0;1" repeatCount="indefinite" calcMode="linear">
    <mpath xlink:href="#path16"></mpath>
  </animateMotion>
</use><path id="path17" d="M 2043.3246800504182 955.766589949614
c 0 59.59417203754059 -14.581552732589715 17.11747494695315 -31.699027679542866 17.11747494695315
S 1979.9266246913323 1015.3607619871545 1979.9266246913323 955.766589949614
s 14.581552732589715 -17.11747494695315 31.699027679542866 -17.11747494695315
S 2043.3246800504182 896.1724179120733 2043.3246800504182 955.766589949614
z" fill="none" stroke="none"></path>
<use xlink:href="#path-z1prs56005h-3" x="0" y="0" stroke="#e88432">
  <animateMotion begin="-1.7292046270380101s" dur="18.818174460362883s" keyPoints="0;1" keyTimes="0;1" repeatCount="indefinite" calcMode="linear">
    <mpath xlink:href="#path17"></mpath>
  </animateMotion>
</use></g>
</svg>